<svg class="rich-terminal" viewBox="0 0 994 635.5999999999999" xmlns="http://www.w3.org/2000/svg">
    <!-- Generated with Rich https://www.textualize.io -->
    <style>

    @font-face {
        font-family: "Fira Code";
        src: local("FiraCode-Regular"),
                url("https://cdnjs.cloudflare.com/ajax/libs/firacode/6.2.0/woff2/FiraCode-Regular.woff2") format("woff2"),
                url("https://cdnjs.cloudflare.com/ajax/libs/firacode/6.2.0/woff/FiraCode-Regular.woff") format("woff");
        font-style: normal;
        font-weight: 400;
    }
    @font-face {
        font-family: "Fira Code";
        src: local("FiraCode-Bold"),
                url("https://cdnjs.cloudflare.com/ajax/libs/firacode/6.2.0/woff2/FiraCode-Bold.woff2") format("woff2"),
                url("https://cdnjs.cloudflare.com/ajax/libs/firacode/6.2.0/woff/FiraCode-Bold.woff") format("woff");
        font-style: bold;
        font-weight: 700;
    }

    .terminal-3782906399-matrix {
        font-family: Fira Code, monospace;
        font-size: 20px;
        line-height: 24.4px;
        font-variant-east-asian: full-width;
    }

    .terminal-3782906399-title {
        font-size: 18px;
        font-weight: bold;
        font-family: arial;
    }

    .terminal-3782906399-r1 { fill: #c5c8c6 }
.terminal-3782906399-r2 { fill: #e5e5e5 }
.terminal-3782906399-r3 { fill: #aaaaaa }
.terminal-3782906399-r4 { fill: #1d1d1d }
.terminal-3782906399-r5 { fill: #b0b0b0 }
.terminal-3782906399-r6 { fill: #656565 }
.terminal-3782906399-r7 { fill: #595959;font-weight: bold }
.terminal-3782906399-r8 { fill: #e5e5e5;font-weight: bold }
.terminal-3782906399-r9 { fill: #cecece }
.terminal-3782906399-r10 { fill: #1f1f1f }
.terminal-3782906399-r11 { fill: #d8d8d8 }
.terminal-3782906399-r12 { fill: #3a3a3a }
.terminal-3782906399-r13 { fill: #1d1d1d;font-weight: bold }
    </style>

    <defs>
    <clipPath id="terminal-3782906399-clip-terminal">
      <rect x="0" y="0" width="975.0" height="584.5999999999999" />
    </clipPath>
    <clipPath id="terminal-3782906399-line-0">
    <rect x="0" y="1.5" width="976" height="24.65"/>
            </clipPath>
<clipPath id="terminal-3782906399-line-1">
    <rect x="0" y="25.9" width="976" height="24.65"/>
            </clipPath>
<clipPath id="terminal-3782906399-line-2">
    <rect x="0" y="50.3" width="976" height="24.65"/>
            </clipPath>
<clipPath id="terminal-3782906399-line-3">
    <rect x="0" y="74.7" width="976" height="24.65"/>
            </clipPath>
<clipPath id="terminal-3782906399-line-4">
    <rect x="0" y="99.1" width="976" height="24.65"/>
            </clipPath>
<clipPath id="terminal-3782906399-line-5">
    <rect x="0" y="123.5" width="976" height="24.65"/>
            </clipPath>
<clipPath id="terminal-3782906399-line-6">
    <rect x="0" y="147.9" width="976" height="24.65"/>
            </clipPath>
<clipPath id="terminal-3782906399-line-7">
    <rect x="0" y="172.3" width="976" height="24.65"/>
            </clipPath>
<clipPath id="terminal-3782906399-line-8">
    <rect x="0" y="196.7" width="976" height="24.65"/>
            </clipPath>
<clipPath id="terminal-3782906399-line-9">
    <rect x="0" y="221.1" width="976" height="24.65"/>
            </clipPath>
<clipPath id="terminal-3782906399-line-10">
    <rect x="0" y="245.5" width="976" height="24.65"/>
            </clipPath>
<clipPath id="terminal-3782906399-line-11">
    <rect x="0" y="269.9" width="976" height="24.65"/>
            </clipPath>
<clipPath id="terminal-3782906399-line-12">
    <rect x="0" y="294.3" width="976" height="24.65"/>
            </clipPath>
<clipPath id="terminal-3782906399-line-13">
    <rect x="0" y="318.7" width="976" height="24.65"/>
            </clipPath>
<clipPath id="terminal-3782906399-line-14">
    <rect x="0" y="343.1" width="976" height="24.65"/>
            </clipPath>
<clipPath id="terminal-3782906399-line-15">
    <rect x="0" y="367.5" width="976" height="24.65"/>
            </clipPath>
<clipPath id="terminal-3782906399-line-16">
    <rect x="0" y="391.9" width="976" height="24.65"/>
            </clipPath>
<clipPath id="terminal-3782906399-line-17">
    <rect x="0" y="416.3" width="976" height="24.65"/>
            </clipPath>
<clipPath id="terminal-3782906399-line-18">
    <rect x="0" y="440.7" width="976" height="24.65"/>
            </clipPath>
<clipPath id="terminal-3782906399-line-19">
    <rect x="0" y="465.1" width="976" height="24.65"/>
            </clipPath>
<clipPath id="terminal-3782906399-line-20">
    <rect x="0" y="489.5" width="976" height="24.65"/>
            </clipPath>
<clipPath id="terminal-3782906399-line-21">
    <rect x="0" y="513.9" width="976" height="24.65"/>
            </clipPath>
<clipPath id="terminal-3782906399-line-22">
    <rect x="0" y="538.3" width="976" height="24.65"/>
            </clipPath>
    </defs>

    <rect fill="#292929" stroke="rgba(255,255,255,0.35)" stroke-width="1" x="1" y="1" width="992" height="633.6" rx="8"/><text class="terminal-3782906399-title" fill="#c5c8c6" text-anchor="middle" x="496" y="27">Codex&#160;Flow</text>
            <g transform="translate(26,22)">
            <circle cx="0" cy="0" r="7" fill="#ff5f57"/>
            <circle cx="22" cy="0" r="7" fill="#febc2e"/>
            <circle cx="44" cy="0" r="7" fill="#28c840"/>
            </g>
        
    <g transform="translate(9, 41)" clip-path="url(#terminal-3782906399-clip-terminal)">
    <rect fill="#3a3a3a" x="0" y="1.5" width="12.2" height="24.65" shape-rendering="crispEdges"/><rect fill="#3a3a3a" x="12.2" y="1.5" width="12.2" height="24.65" shape-rendering="crispEdges"/><rect fill="#3a3a3a" x="24.4" y="1.5" width="61" height="24.65" shape-rendering="crispEdges"/><rect fill="#3a3a3a" x="85.4" y="1.5" width="12.2" height="24.65" shape-rendering="crispEdges"/><rect fill="#3a3a3a" x="97.6" y="1.5" width="146.4" height="24.65" shape-rendering="crispEdges"/><rect fill="#3a3a3a" x="244" y="1.5" width="122" height="24.65" shape-rendering="crispEdges"/><rect fill="#3a3a3a" x="366" y="1.5" width="36.6" height="24.65" shape-rendering="crispEdges"/><rect fill="#3a3a3a" x="402.6" y="1.5" width="305" height="24.65" shape-rendering="crispEdges"/><rect fill="#3a3a3a" x="707.6" y="1.5" width="146.4" height="24.65" shape-rendering="crispEdges"/><rect fill="#3a3a3a" x="854" y="1.5" width="12.2" height="24.65" shape-rendering="crispEdges"/><rect fill="#3a3a3a" x="866.2" y="1.5" width="0" height="24.65" shape-rendering="crispEdges"/><rect fill="#3a3a3a" x="866.2" y="1.5" width="97.6" height="24.65" shape-rendering="crispEdges"/><rect fill="#3a3a3a" x="963.8" y="1.5" width="12.2" height="24.65" shape-rendering="crispEdges"/><rect fill="#e0e0e0" x="0" y="25.9" width="24.4" height="24.65" shape-rendering="crispEdges"/><rect fill="#e0e0e0" x="24.4" y="25.9" width="902.8" height="24.65" shape-rendering="crispEdges"/><rect fill="#e0e0e0" x="927.2" y="25.9" width="24.4" height="24.65" shape-rendering="crispEdges"/><rect fill="#e0e0e0" x="951.6" y="25.9" width="24.4" height="24.65" shape-rendering="crispEdges"/><rect fill="#e0e0e0" x="0" y="50.3" width="976" height="24.65" shape-rendering="crispEdges"/><rect fill="#e0e0e0" x="0" y="74.7" width="12.2" height="24.65" shape-rendering="crispEdges"/><rect fill="#e0e0e0" x="12.2" y="74.7" width="12.2" height="24.65" shape-rendering="crispEdges"/><rect fill="#e0e0e0" x="24.4" y="74.7" width="280.6" height="24.65" shape-rendering="crispEdges"/><rect fill="#e0e0e0" x="305" y="74.7" width="646.6" height="24.65" shape-rendering="crispEdges"/><rect fill="#e0e0e0" x="951.6" y="74.7" width="12.2" height="24.65" shape-rendering="crispEdges"/><rect fill="#e0e0e0" x="963.8" y="74.7" width="12.2" height="24.65" shape-rendering="crispEdges"/><rect fill="#e0e0e0" x="0" y="99.1" width="12.2" height="24.65" shape-rendering="crispEdges"/><rect fill="#e0e0e0" x="12.2" y="99.1" width="951.6" height="24.65" shape-rendering="crispEdges"/><rect fill="#e0e0e0" x="963.8" y="99.1" width="12.2" height="24.65" shape-rendering="crispEdges"/><rect fill="#e0e0e0" x="0" y="123.5" width="12.2" height="24.65" shape-rendering="crispEdges"/><rect fill="#e0e0e0" x="12.2" y="123.5" width="12.2" height="24.65" shape-rendering="crispEdges"/><rect fill="#e0e0e0" x="24.4" y="123.5" width="244" height="24.65" shape-rendering="crispEdges"/><rect fill="#e0e0e0" x="268.4" y="123.5" width="683.2" height="24.65" shape-rendering="crispEdges"/><rect fill="#e0e0e0" x="951.6" y="123.5" width="12.2" height="24.65" shape-rendering="crispEdges"/><rect fill="#e0e0e0" x="963.8" y="123.5" width="12.2" height="24.65" shape-rendering="crispEdges"/><rect fill="#e0e0e0" x="0" y="147.9" width="12.2" height="24.65" shape-rendering="crispEdges"/><rect fill="#3a3a3a" x="12.2" y="147.9" width="12.2" height="24.65" shape-rendering="crispEdges"/><rect fill="#3a3a3a" x="24.4" y="147.9" width="280.6" height="24.65" shape-rendering="crispEdges"/><rect fill="#3a3a3a" x="305" y="147.9" width="109.8" height="24.65" shape-rendering="crispEdges"/><rect fill="#3a3a3a" x="414.8" y="147.9" width="512.4" height="24.65" shape-rendering="crispEdges"/><rect fill="#3a3a3a" x="927.2" y="147.9" width="12.2" height="24.65" shape-rendering="crispEdges"/><rect fill="#909090" x="939.4" y="147.9" width="24.4" height="24.65" shape-rendering="crispEdges"/><rect fill="#e0e0e0" x="963.8" y="147.9" width="12.2" height="24.65" shape-rendering="crispEdges"/><rect fill="#e0e0e0" x="0" y="172.3" width="12.2" height="24.65" shape-rendering="crispEdges"/><rect fill="#e0e0e0" x="12.2" y="172.3" width="12.2" height="24.65" shape-rendering="crispEdges"/><rect fill="#e0e0e0" x="24.4" y="172.3" width="244" height="24.65" shape-rendering="crispEdges"/><rect fill="#e0e0e0" x="268.4" y="172.3" width="683.2" height="24.65" shape-rendering="crispEdges"/><rect fill="#e0e0e0" x="951.6" y="172.3" width="12.2" height="24.65" shape-rendering="crispEdges"/><rect fill="#e0e0e0" x="963.8" y="172.3" width="12.2" height="24.65" shape-rendering="crispEdges"/><rect fill="#e0e0e0" x="0" y="196.7" width="12.2" height="24.65" shape-rendering="crispEdges"/><rect fill="#a9a9a9" x="12.2" y="196.7" width="12.2" height="24.65" shape-rendering="crispEdges"/><rect fill="#a9a9a9" x="24.4" y="196.7" width="195.2" height="24.65" shape-rendering="crispEdges"/><rect fill="#a9a9a9" x="219.6" y="196.7" width="12.2" height="24.65" shape-rendering="crispEdges"/><rect fill="#a9a9a9" x="231.8" y="196.7" width="695.4" height="24.65" shape-rendering="crispEdges"/><rect fill="#a9a9a9" x="927.2" y="196.7" width="12.2" height="24.65" shape-rendering="crispEdges"/><rect fill="#909090" x="939.4" y="196.7" width="24.4" height="24.65" shape-rendering="crispEdges"/><rect fill="#e0e0e0" x="963.8" y="196.7" width="12.2" height="24.65" shape-rendering="crispEdges"/><rect fill="#e0e0e0" x="0" y="221.1" width="976" height="24.65" shape-rendering="crispEdges"/><rect fill="#e0e0e0" x="0" y="245.5" width="12.2" height="24.65" shape-rendering="crispEdges"/><rect fill="#e0e0e0" x="12.2" y="245.5" width="12.2" height="24.65" shape-rendering="crispEdges"/><rect fill="#e0e0e0" x="24.4" y="245.5" width="256.2" height="24.65" shape-rendering="crispEdges"/><rect fill="#e0e0e0" x="280.6" y="245.5" width="671" height="24.65" shape-rendering="crispEdges"/><rect fill="#e0e0e0" x="951.6" y="245.5" width="12.2" height="24.65" shape-rendering="crispEdges"/><rect fill="#e0e0e0" x="963.8" y="245.5" width="12.2" height="24.65" shape-rendering="crispEdges"/><rect fill="#e0e0e0" x="0" y="269.9" width="12.2" height="24.65" shape-rendering="crispEdges"/><rect fill="#e0e0e0" x="12.2" y="269.9" width="951.6" height="24.65" shape-rendering="crispEdges"/><rect fill="#e0e0e0" x="963.8" y="269.9" width="12.2" height="24.65" shape-rendering="crispEdges"/><rect fill="#e0e0e0" x="0" y="294.3" width="12.2" height="24.65" shape-rendering="crispEdges"/><rect fill="#e0e0e0" x="12.2" y="294.3" width="12.2" height="24.65" shape-rendering="crispEdges"/><rect fill="#e0e0e0" x="24.4" y="294.3" width="524.6" height="24.65" shape-rendering="crispEdges"/><rect fill="#e0e0e0" x="549" y="294.3" width="402.6" height="24.65" shape-rendering="crispEdges"/><rect fill="#e0e0e0" x="951.6" y="294.3" width="12.2" height="24.65" shape-rendering="crispEdges"/><rect fill="#e0e0e0" x="963.8" y="294.3" width="12.2" height="24.65" shape-rendering="crispEdges"/><rect fill="#e0e0e0" x="0" y="318.7" width="12.2" height="24.65" shape-rendering="crispEdges"/><rect fill="#e0e0e0" x="12.2" y="318.7" width="12.2" height="24.65" shape-rendering="crispEdges"/><rect fill="#e0e0e0" x="24.4" y="318.7" width="0" height="24.65" shape-rendering="crispEdges"/><rect fill="#e0e0e0" x="24.4" y="318.7" width="927.2" height="24.65" shape-rendering="crispEdges"/><rect fill="#e0e0e0" x="951.6" y="318.7" width="12.2" height="24.65" shape-rendering="crispEdges"/><rect fill="#e0e0e0" x="963.8" y="318.7" width="12.2" height="24.65" shape-rendering="crispEdges"/><rect fill="#e0e0e0" x="0" y="343.1" width="12.2" height="24.65" shape-rendering="crispEdges"/><rect fill="#e0e0e0" x="12.2" y="343.1" width="12.2" height="24.65" shape-rendering="crispEdges"/><rect fill="#e0e0e0" x="24.4" y="343.1" width="134.2" height="24.65" shape-rendering="crispEdges"/><rect fill="#e0e0e0" x="158.6" y="343.1" width="793" height="24.65" shape-rendering="crispEdges"/><rect fill="#e0e0e0" x="951.6" y="343.1" width="12.2" height="24.65" shape-rendering="crispEdges"/><rect fill="#e0e0e0" x="963.8" y="343.1" width="12.2" height="24.65" shape-rendering="crispEdges"/><rect fill="#e0e0e0" x="0" y="367.5" width="12.2" height="24.65" shape-rendering="crispEdges"/><rect fill="#e0e0e0" x="12.2" y="367.5" width="12.2" height="24.65" shape-rendering="crispEdges"/><rect fill="#e0e0e0" x="24.4" y="367.5" width="878.4" height="24.65" shape-rendering="crispEdges"/><rect fill="#e0e0e0" x="902.8" y="367.5" width="48.8" height="24.65" shape-rendering="crispEdges"/><rect fill="#e0e0e0" x="951.6" y="367.5" width="12.2" height="24.65" shape-rendering="crispEdges"/><rect fill="#e0e0e0" x="963.8" y="367.5" width="12.2" height="24.65" shape-rendering="crispEdges"/><rect fill="#e0e0e0" x="0" y="391.9" width="12.2" height="24.65" shape-rendering="crispEdges"/><rect fill="#e0e0e0" x="12.2" y="391.9" width="12.2" height="24.65" shape-rendering="crispEdges"/><rect fill="#e0e0e0" x="24.4" y="391.9" width="0" height="24.65" shape-rendering="crispEdges"/><rect fill="#e0e0e0" x="24.4" y="391.9" width="927.2" height="24.65" shape-rendering="crispEdges"/><rect fill="#e0e0e0" x="951.6" y="391.9" width="12.2" height="24.65" shape-rendering="crispEdges"/><rect fill="#e0e0e0" x="963.8" y="391.9" width="12.2" height="24.65" shape-rendering="crispEdges"/><rect fill="#e0e0e0" x="0" y="416.3" width="12.2" height="24.65" shape-rendering="crispEdges"/><rect fill="#e0e0e0" x="12.2" y="416.3" width="12.2" height="24.65" shape-rendering="crispEdges"/><rect fill="#e0e0e0" x="24.4" y="416.3" width="146.4" height="24.65" shape-rendering="crispEdges"/><rect fill="#e0e0e0" x="170.8" y="416.3" width="780.8" height="24.65" shape-rendering="crispEdges"/><rect fill="#e0e0e0" x="951.6" y="416.3" width="12.2" height="24.65" shape-rendering="crispEdges"/><rect fill="#e0e0e0" x="963.8" y="416.3" width="12.2" height="24.65" shape-rendering="crispEdges"/><rect fill="#e0e0e0" x="0" y="440.7" width="12.2" height="24.65" shape-rendering="crispEdges"/><rect fill="#e0e0e0" x="12.2" y="440.7" width="12.2" height="24.65" shape-rendering="crispEdges"/><rect fill="#e0e0e0" x="24.4" y="440.7" width="817.4" height="24.65" shape-rendering="crispEdges"/><rect fill="#e0e0e0" x="841.8" y="440.7" width="109.8" height="24.65" shape-rendering="crispEdges"/><rect fill="#e0e0e0" x="951.6" y="440.7" width="12.2" height="24.65" shape-rendering="crispEdges"/><rect fill="#e0e0e0" x="963.8" y="440.7" width="12.2" height="24.65" shape-rendering="crispEdges"/><rect fill="#e0e0e0" x="0" y="465.1" width="12.2" height="24.65" shape-rendering="crispEdges"/><rect fill="#e0e0e0" x="12.2" y="465.1" width="951.6" height="24.65" shape-rendering="crispEdges"/><rect fill="#e0e0e0" x="963.8" y="465.1" width="12.2" height="24.65" shape-rendering="crispEdges"/><rect fill="#e0e0e0" x="0" y="489.5" width="12.2" height="24.65" shape-rendering="crispEdges"/><rect fill="#e0e0e0" x="12.2" y="489.5" width="12.2" height="24.65" shape-rendering="crispEdges"/><rect fill="#e0e0e0" x="24.4" y="489.5" width="256.2" height="24.65" shape-rendering="crispEdges"/><rect fill="#e0e0e0" x="280.6" y="489.5" width="671" height="24.65" shape-rendering="crispEdges"/><rect fill="#e0e0e0" x="951.6" y="489.5" width="12.2" height="24.65" shape-rendering="crispEdges"/><rect fill="#e0e0e0" x="963.8" y="489.5" width="12.2" height="24.65" shape-rendering="crispEdges"/><rect fill="#e0e0e0" x="0" y="513.9" width="12.2" height="24.65" shape-rendering="crispEdges"/><rect fill="#e0e0e0" x="12.2" y="513.9" width="12.2" height="24.65" shape-rendering="crispEdges"/><rect fill="#e0e0e0" x="24.4" y="513.9" width="854" height="24.65" shape-rendering="crispEdges"/><rect fill="#e0e0e0" x="878.4" y="513.9" width="73.2" height="24.65" shape-rendering="crispEdges"/><rect fill="#e0e0e0" x="951.6" y="513.9" width="12.2" height="24.65" shape-rendering="crispEdges"/><rect fill="#e0e0e0" x="963.8" y="513.9" width="12.2" height="24.65" shape-rendering="crispEdges"/><rect fill="#e0e0e0" x="0" y="538.3" width="976" height="24.65" shape-rendering="crispEdges"/><rect fill="#e0e0e0" x="0" y="562.7" width="12.2" height="24.65" shape-rendering="crispEdges"/><rect fill="#e0e0e0" x="12.2" y="562.7" width="500.2" height="24.65" shape-rendering="crispEdges"/><rect fill="#e0e0e0" x="512.4" y="562.7" width="451.4" height="24.65" shape-rendering="crispEdges"/><rect fill="#e0e0e0" x="963.8" y="562.7" width="12.2" height="24.65" shape-rendering="crispEdges"/>
    <g class="terminal-3782906399-matrix">
    <text class="terminal-3782906399-r2" x="12.2" y="20" textLength="12.2" clip-path="url(#terminal-3782906399-line-0)">⭘</text><text class="terminal-3782906399-r2" x="244" y="20" textLength="122" clip-path="url(#terminal-3782906399-line-0)">Codex&#160;Flow</text><text class="terminal-3782906399-r3" x="366" y="20" textLength="36.6" clip-path="url(#terminal-3782906399-line-0)">&#160;—&#160;</text><text class="terminal-3782906399-r3" x="402.6" y="20" textLength="305" clip-path="url(#terminal-3782906399-line-0)">Conversations&#160;and&#160;control</text><text class="terminal-3782906399-r1" x="976" y="20" textLength="12.2" clip-path="url(#terminal-3782906399-line-0)">
</text><text class="terminal-3782906399-r4" x="24.4" y="44.4" textLength="902.8" clip-path="url(#terminal-3782906399-line-1)">LIVE&#160;·&#160;authenticated&#160;supervisor&#160;&#160;·&#160;&#160;1&#160;worker&#160;conversation(s)&#160;&#160;·&#160;&#160;1&#160;item(s)</text><text class="terminal-3782906399-r1" x="976" y="44.4" textLength="12.2" clip-path="url(#terminal-3782906399-line-1)">
</text><text class="terminal-3782906399-r5" x="0" y="68.8" textLength="976" clip-path="url(#terminal-3782906399-line-2)">────────────────────────────────────────────────────────────────────────────────</text><text class="terminal-3782906399-r1" x="976" y="68.8" textLength="12.2" clip-path="url(#terminal-3782906399-line-2)">
</text><text class="terminal-3782906399-r4" x="24.4" y="93.2" textLength="280.6" clip-path="url(#terminal-3782906399-line-3)">CONTROLLER&#160;·&#160;1&#160;workflow</text><text class="terminal-3782906399-r1" x="976" y="93.2" textLength="12.2" clip-path="url(#terminal-3782906399-line-3)">
</text><text class="terminal-3782906399-r6" x="12.2" y="117.6" textLength="951.6" clip-path="url(#terminal-3782906399-line-4)">──────────────────────────────────────────────────────────────────────────────</text><text class="terminal-3782906399-r1" x="976" y="117.6" textLength="12.2" clip-path="url(#terminal-3782906399-line-4)">
</text><text class="terminal-3782906399-r7" x="24.4" y="142" textLength="244" clip-path="url(#terminal-3782906399-line-5)">WORKER&#160;CONVERSATIONS</text><text class="terminal-3782906399-r1" x="976" y="142" textLength="12.2" clip-path="url(#terminal-3782906399-line-5)">
</text><text class="terminal-3782906399-r8" x="24.4" y="166.4" textLength="280.6" clip-path="url(#terminal-3782906399-line-6)">└&#160;Implementer&#160;·&#160;Working</text><text class="terminal-3782906399-r1" x="976" y="166.4" textLength="12.2" clip-path="url(#terminal-3782906399-line-6)">
</text><text class="terminal-3782906399-r7" x="24.4" y="190.8" textLength="244" clip-path="url(#terminal-3782906399-line-7)">NEEDS&#160;YOUR&#160;ATTENTION</text><text class="terminal-3782906399-r1" x="976" y="190.8" textLength="12.2" clip-path="url(#terminal-3782906399-line-7)">
</text><text class="terminal-3782906399-r10" x="24.4" y="215.2" textLength="195.2" clip-path="url(#terminal-3782906399-line-8)">!&#160;Progress&#160;check</text><text class="terminal-3782906399-r1" x="976" y="215.2" textLength="12.2" clip-path="url(#terminal-3782906399-line-8)">
</text><text class="terminal-3782906399-r12" x="0" y="239.6" textLength="976" clip-path="url(#terminal-3782906399-line-9)">────────────────────────────────────────────────────────────────────────────────</text><text class="terminal-3782906399-r1" x="976" y="239.6" textLength="12.2" clip-path="url(#terminal-3782906399-line-9)">
</text><text class="terminal-3782906399-r4" x="24.4" y="264" textLength="256.2" clip-path="url(#terminal-3782906399-line-10)">Implementer&#160;·&#160;Working</text><text class="terminal-3782906399-r1" x="976" y="264" textLength="12.2" clip-path="url(#terminal-3782906399-line-10)">
</text><text class="terminal-3782906399-r12" x="12.2" y="288.4" textLength="951.6" clip-path="url(#terminal-3782906399-line-11)">──────────────────────────────────────────────────────────────────────────────</text><text class="terminal-3782906399-r1" x="976" y="288.4" textLength="12.2" clip-path="url(#terminal-3782906399-line-11)">
</text><text class="terminal-3782906399-r4" x="24.4" y="312.8" textLength="524.6" clip-path="url(#terminal-3782906399-line-12)">CONVERSATION&#160;·&#160;older&#160;messages&#160;available&#160;(L)</text><text class="terminal-3782906399-r1" x="976" y="312.8" textLength="12.2" clip-path="url(#terminal-3782906399-line-12)">
</text><text class="terminal-3782906399-r1" x="976" y="337.2" textLength="12.2" clip-path="url(#terminal-3782906399-line-13)">
</text><text class="terminal-3782906399-r4" x="24.4" y="361.6" textLength="134.2" clip-path="url(#terminal-3782906399-line-14)">USER&#160;·&#160;text</text><text class="terminal-3782906399-r1" x="976" y="361.6" textLength="12.2" clip-path="url(#terminal-3782906399-line-14)">
</text><text class="terminal-3782906399-r4" x="24.4" y="386" textLength="878.4" clip-path="url(#terminal-3782906399-line-15)">Please&#160;verify&#160;the&#160;release&#160;checks&#160;and&#160;keep&#160;the&#160;protected&#160;files&#160;unchanged.</text><text class="terminal-3782906399-r1" x="976" y="386" textLength="12.2" clip-path="url(#terminal-3782906399-line-15)">
</text><text class="terminal-3782906399-r1" x="976" y="410.4" textLength="12.2" clip-path="url(#terminal-3782906399-line-16)">
</text><text class="terminal-3782906399-r4" x="24.4" y="434.8" textLength="146.4" clip-path="url(#terminal-3782906399-line-17)">AGENT&#160;·&#160;text</text><text class="terminal-3782906399-r1" x="976" y="434.8" textLength="12.2" clip-path="url(#terminal-3782906399-line-17)">
</text><text class="terminal-3782906399-r4" x="24.4" y="459.2" textLength="817.4" clip-path="url(#terminal-3782906399-line-18)">I&#160;inspected&#160;the&#160;controller&#160;boundary&#160;and&#160;started&#160;the&#160;focused&#160;checks.</text><text class="terminal-3782906399-r1" x="976" y="459.2" textLength="12.2" clip-path="url(#terminal-3782906399-line-18)">
</text><text class="terminal-3782906399-r12" x="12.2" y="483.6" textLength="951.6" clip-path="url(#terminal-3782906399-line-19)">──────────────────────────────────────────────────────────────────────────────</text><text class="terminal-3782906399-r1" x="976" y="483.6" textLength="12.2" clip-path="url(#terminal-3782906399-line-19)">
</text><text class="terminal-3782906399-r13" x="24.4" y="508" textLength="256.2" clip-path="url(#terminal-3782906399-line-20)">View&#160;top&#160;·&#160;[/]&#160;Scroll</text><text class="terminal-3782906399-r1" x="976" y="508" textLength="12.2" clip-path="url(#terminal-3782906399-line-20)">
</text><text class="terminal-3782906399-r13" x="24.4" y="532.4" textLength="854" clip-path="url(#terminal-3782906399-line-21)">S&#160;Send&#160;direction&#160;·&#160;I&#160;Stop&#160;·&#160;L&#160;Load&#160;older&#160;·&#160;C&#160;Copy&#160;·&#160;O&#160;Open&#160;·&#160;T&#160;Details</text><text class="terminal-3782906399-r1" x="976" y="532.4" textLength="12.2" clip-path="url(#terminal-3782906399-line-21)">
</text><text class="terminal-3782906399-r5" x="0" y="556.8" textLength="976" clip-path="url(#terminal-3782906399-line-22)">────────────────────────────────────────────────────────────────────────────────</text><text class="terminal-3782906399-r1" x="976" y="556.8" textLength="12.2" clip-path="url(#terminal-3782906399-line-22)">
</text><text class="terminal-3782906399-r4" x="12.2" y="581.2" textLength="500.2" clip-path="url(#terminal-3782906399-line-23)">Ready&#160;·&#160;Tab&#160;moves&#160;focus&#160;·&#160;^P&#160;all&#160;commands</text>
    </g>
    </g>
</svg>
